<svg xmlns="http://www.w3.org/2000/svg" width="1200" height="700" viewBox="0 0 1200 700" fill="none">
  <defs>
    <linearGradient id="bg" x1="0" y1="0" x2="0" y2="1">
      <stop offset="0" stop-color="#ffe9ed"/>
      <stop offset="1" stop-color="#ffe2bf"/>
    </linearGradient>
    <linearGradient id="table" x1="0" y1="0" x2="1" y2="1">
      <stop offset="0" stop-color="#b33a2a"/>
      <stop offset="1" stop-color="#8d2619"/>
    </linearGradient>
  </defs>
  <rect width="1200" height="700" fill="url(#bg)"/>
  <circle cx="170" cy="130" r="70" fill="#fff8f4" opacity="0.85"/>
  <circle cx="1030" cy="120" r="85" fill="#fff4ef" opacity="0.75"/>
  <circle cx="1080" cy="520" r="90" fill="#ffedd8" opacity="0.75"/>

  <rect x="120" y="470" width="960" height="120" rx="56" fill="url(#table)"/>
  <ellipse cx="600" cy="470" rx="360" ry="100" fill="#ffe8d2" stroke="#f0b998" stroke-width="6"/>
  <ellipse cx="600" cy="470" rx="248" ry="66" fill="#fff7ef" stroke="#f2cdb4" stroke-width="4"/>

  <g fill="#fef3c7" stroke="#d6a96f" stroke-width="3">
    <circle cx="430" cy="438" r="20"/>
    <circle cx="770" cy="438" r="20"/>
    <circle cx="600" cy="430" r="22"/>
  </g>

  <g>
    <circle cx="360" cy="370" r="42" fill="#ffd7bf"/>
    <rect x="326" y="412" width="68" height="84" rx="22" fill="#8db8ff"/>
    <circle cx="840" cy="365" r="44" fill="#ffd7bf"/>
    <rect x="804" y="410" width="72" height="88" rx="24" fill="#f9a8d4"/>
    <circle cx="600" cy="332" r="48" fill="#ffd7bf"/>
    <rect x="560" y="380" width="80" height="108" rx="26" fill="#93c5fd"/>
  </g>

  <text x="600" y="620" text-anchor="middle" fill="#7a1e13" font-size="44" font-weight="700">入席开练，表达见真章</text>
</svg>
